<?xml version="1.0" encoding="UTF-8" standalone="no"?>
<!-- Generator: Adobe Illustrator 19.0.0, SVG Export Plug-In . SVG Version: 6.00 Build 0)  -->

<svg
   version="1.1"
   id="Capa_1"
   x="0px"
   y="0px"
   viewBox="0 0 384 384"
   style="enable-background:new 0 0 384 384;"
   xml:space="preserve"
   sodipodi:docname="call.svg"
   inkscape:version="1.1 (c68e22c387, 2021-05-23)"
   xmlns:inkscape="http://www.inkscape.org/namespaces/inkscape"
   xmlns:sodipodi="http://sodipodi.sourceforge.net/DTD/sodipodi-0.dtd"
   xmlns="http://www.w3.org/2000/svg"
   xmlns:svg="http://www.w3.org/2000/svg"><defs
   id="defs41" /><sodipodi:namedview
   id="namedview39"
   pagecolor="#ffffff"
   bordercolor="#999999"
   borderopacity="1"
   inkscape:pageshadow="0"
   inkscape:pageopacity="0"
   inkscape:pagecheckerboard="0"
   showgrid="false"
   inkscape:zoom="2.1666667"
   inkscape:cx="191.76923"
   inkscape:cy="192.23077"
   inkscape:window-width="1920"
   inkscape:window-height="1017"
   inkscape:window-x="-8"
   inkscape:window-y="-8"
   inkscape:window-maximized="1"
   inkscape:current-layer="Capa_1" />
<g
   id="g6"
   style="fill:#ffffff">
	<g
   id="g4"
   style="fill:#ffffff">
		<path
   d="m 353.188,252.052 c -23.51,0 -46.594,-3.677 -68.469,-10.906 -10.719,-3.656 -23.896,-0.302 -30.438,6.417 l -43.177,32.594 C 161.031,253.428 130.187,222.594 103.823,172.897 l 31.635,-42.052 c 8.219,-8.208 11.167,-20.198 7.635,-31.448 C 135.833,77.407 132.145,54.334 132.145,30.814 132.146,13.823 118.323,0 101.333,0 H 30.813 C 13.823,0 0,13.823 0,30.813 0,225.563 158.438,384 353.188,384 c 16.99,0 30.813,-13.823 30.813,-30.813 V 282.864 C 384,265.875 370.177,252.052 353.188,252.052 Z"
   id="path2"
   style="fill:#ffffff" />
	</g>
</g>
<g
   id="g8">
</g>
<g
   id="g10">
</g>
<g
   id="g12">
</g>
<g
   id="g14">
</g>
<g
   id="g16">
</g>
<g
   id="g18">
</g>
<g
   id="g20">
</g>
<g
   id="g22">
</g>
<g
   id="g24">
</g>
<g
   id="g26">
</g>
<g
   id="g28">
</g>
<g
   id="g30">
</g>
<g
   id="g32">
</g>
<g
   id="g34">
</g>
<g
   id="g36">
</g>
</svg>
